# xmcd
#
# Track frame offsets:
#	150
#	12220
#	22290
#	31515
#	40384
#	48111
#	59399
#	67796
#	78981
#	86937
#	96731
#	108615
#	120744
#	128733
#	138589
#	150267
#	161675
#	169125
#	178568
#	188528
#	196023
#	201551
#	209954
#	212530
#	218558
#	227652
#	230150
#	240463
#	250548
#	258286
#	266261
#	276793
#	287153
#	297258
#	304989
#	312966
#
# Disc length: 4314 seconds
#
# Revision: 0
# Processed by: cddbd v1.5.2PL0 Copyright (c) Steve Scherf et al.
# Submitted via: EasyCDDAExtractor 12.0.1.1
#
DISCID=0a10d824
DTITLE=Johnny Cash - Complete Recording Sessions [Cd 03] 1957-1958 Sessions
DYEAR=2005
DGENRE=Country
TTITLE0=Goodnight Irene
TTITLE1=Ballad Of A Teenage Queen
TTITLE2=Come In Stranger
TTITLE3=Guess Things Happen That Way
TTITLE4=Come In Stranger
TTITLE5=Oh Lonesome Me
TTITLE6=Guess Things Happen That Way
TTITLE7=Oh Lonesome Me
TTITLE8=Sugartime
TTITLE9=Born To Lose
TTITLE10=You're The Nearest Thing To He
TTITLE11=You're The Nearest Thing To He
TTITLE12=Sugartime
TTITLE13=Born To Lose
TTITLE14=The Story Of A Broken Heart
TTITLE15=The Story Of A Broken Heart
TTITLE16=The Story Of A Broken Heart
TTITLE17=The Story Of A Broken Heart
TTITLE18=The Story Of A Broken Heart
TTITLE19=Always Alone
TTITLE20=Always Alone
TTITLE21=Always Alone
TTITLE22=You Tell Me
TTITLE23=You Tell Me
TTITLE24=Life Goes On
TTITLE25=You Win Again
TTITLE26=You Win Again
TTITLE27=I Could Never Be Ashamed Of Yo
TTITLE28=Hey Good Lookin'
TTITLE29=I Can't Help It
TTITLE30=Cold, Cold Heart
TTITLE31=You Win Again
TTITLE32=I Could Never Be Ashamed Of Yo
TTITLE33=Hey Good Lookin'
TTITLE34=I Can't Help It
TTITLE35=Cold, Cold Heart
EXTD=
EXTT0=
EXTT1=
EXTT2=
EXTT3=
EXTT4=
EXTT5=
EXTT6=
EXTT7=
EXTT8=
EXTT9=
EXTT10=
EXTT11=
EXTT12=
EXTT13=
EXTT14=
EXTT15=
EXTT16=
EXTT17=
EXTT18=
EXTT19=
EXTT20=
EXTT21=
EXTT22=
EXTT23=
EXTT24=
EXTT25=
EXTT26=
EXTT27=
EXTT28=
EXTT29=
EXTT30=
EXTT31=
EXTT32=
EXTT33=
EXTT34=
EXTT35=
PLAYORDER=
